<svg id="Icons" xmlns="http://www.w3.org/2000/svg" viewBox="0 0 512 512"><defs><style>.cls-3{fill:#098955}.cls-4{fill:#14a36d}.cls-5{fill:#51c441}.cls-6{fill:#65e856}.cls-7{fill:#92f784}.cls-8{fill:#cfffc7}.cls-9{fill:#15be79}.cls-10{fill:#27e090}.cls-11{fill:#eea47d}.cls-13{fill:#f3c3b1}.cls-14{fill:#f5b890}</style></defs><circle cx="256" cy="256" r="256" style="fill:#e52e44"/><circle cx="256" cy="256" r="205.64" style="fill:#fa4654"/><path class="cls-3" d="m382.56 331.27-20.2 20.19a8.69 8.69 0 0 1-.93.81 8.11 8.11 0 0 1-11.93-2.65L330 314l15.09-15.1 9.47 5.19 26.2 14.35a8.13 8.13 0 0 1 1.8 12.83z"/><path class="cls-4" d="m382.56 331.27-20.2 20.19a8.69 8.69 0 0 1-.93.81l-16-29.23a9.71 9.71 0 0 1 1.65-11.54l7.45-7.45 26.2 14.35a8.13 8.13 0 0 1 1.83 12.87z"/><path class="cls-5" d="M294 231.1v32h-32a122.26 122.26 0 0 1-122.33-122.25v-32h32A122.28 122.28 0 0 1 294 231.1z"/><path class="cls-6" d="M294 231.1v2.06l-2 .44a122.28 122.28 0 0 1-145.46-93.48l-6.8-31.28h32A122.28 122.28 0 0 1 294 231.1z"/><ellipse class="cls-7" cx="187.77" cy="132.29" rx="12.85" ry="21.94" transform="rotate(-59.53 187.772 132.296)"/><path class="cls-6" d="m305.34 264.8 10.81 18.72 2.46 4.26-23 13.27A101.34 101.34 0 0 1 157.2 264l-13.27-23 15.9-9.18 7.08-4.09a101.34 101.34 0 0 1 138.43 37.07z"/><path class="cls-7" d="m305.34 264.8 10.81 18.72-7.07 4.08a101.34 101.34 0 0 1-138.44-37.09l-10.81-18.72 7.08-4.09a101.34 101.34 0 0 1 138.43 37.1z"/><ellipse class="cls-8" cx="208.13" cy="235.31" rx="23.07" ry="12.4" transform="rotate(-6.31 207.948 235.195)"/><path class="cls-5" d="m295.63 274.51 18.72 10.81 4.26 2.46 13.27-23a101.33 101.33 0 0 0-37.1-138.43l-23-13.27-9.16 15.92-4.08 7.08a101.34 101.34 0 0 0 37.09 138.43z"/><path class="cls-6" d="m295.63 274.51 18.72 10.81 4.08-7.07a101.34 101.34 0 0 0-37.09-138.44L262.62 129l-4.08 7.08a101.34 101.34 0 0 0 37.09 138.43z"/><ellipse class="cls-7" cx="266.15" cy="177.3" rx="23.07" ry="12.4" transform="rotate(-83.69 266.164 177.295)"/><path class="cls-6" d="M318.61 261.24v26.54h-26.53a101.35 101.35 0 0 1-101.35-101.34v-26.53h26.53a101.34 101.34 0 0 1 101.35 101.33z"/><path class="cls-7" d="M318.61 261.24V263l-1.67.36a101.35 101.35 0 0 1-120.57-77.48l-5.63-25.92h26.53a101.34 101.34 0 0 1 101.34 101.28z"/><ellipse class="cls-8" cx="230.61" cy="179.34" rx="10.65" ry="18.19" transform="rotate(-59.53 230.605 179.347)"/><path class="cls-3" d="m318.61 287.78 18.76 18.76-18.76 18.76a101.32 101.32 0 0 1-143.31 0l-18.77-18.76 18.77-18.76a101.32 101.32 0 0 1 143.31 0z"/><path class="cls-4" d="m318.61 287.78 18.76 18.76-5.52 5.52a101.33 101.33 0 0 1-143.31 0l-18.76-18.76 5.52-5.52a101.32 101.32 0 0 1 143.31 0z"/><ellipse class="cls-9" cx="221.5" cy="286.07" rx="25.91" ry="14.37" transform="rotate(-10.54 221.48 286.062)"/><ellipse class="cls-9" cx="273.03" cy="288.92" rx="7.94" ry="18.66" transform="rotate(-75 273.031 288.92)"/><path class="cls-4" d="m318.61 287.78 18.76 18.76 18.76-18.76a101.34 101.34 0 0 0 0-143.32l-18.76-18.76-18.76 18.76a101.34 101.34 0 0 0 0 143.32z"/><path class="cls-9" d="m318.61 287.78 18.76 18.76 5.52-5.52a101.33 101.33 0 0 0 0-143.31l-18.76-18.77-5.52 5.52a101.34 101.34 0 0 0 0 143.32z"/><ellipse class="cls-10" cx="316.9" cy="190.66" rx="25.91" ry="14.37" transform="rotate(-79.46 316.902 190.66)"/><ellipse class="cls-10" cx="319.75" cy="242.2" rx="7.94" ry="18.66" transform="rotate(-15 319.75 242.197)"/><path class="cls-11" d="M393.4 366.25a8.43 8.43 0 0 1-.66.71l-.25.25c-6.81 6.83-12.71 13.39-18 19.66-38.32 45.3-45.38 75.06-138.76 75.06-55.23 0-64.4 6.59-76 31.33-3.64-1.48-7.23-3-10.78-4.68a255 255 0 0 1-49.58-30.12q-6.4-4.95-12.48-10.31l48.34-48.33c63.75-63.74 84.9-50.57 96.35-50.57 6 0 14.93-5.47 22.17-10.73 6.69-4.84 11.9-9.5 11.9-9.5 3.62-3.62 7-5.55 9.92-6.19 8-1.74 13 6 12.09 14.83a22.42 22.42 0 0 1-6.56 13.62c-5.72 5.71-48.38 31-48.38 31h63.94c23.36 0 43.27-52.06 65.49-52.06 11.61 0 17.15 2.93 19.79 5.73a8 8 0 0 1 2.42 5l-2.6 3.05-.08.09-.31.38-.08.1-8.29 9.91h.31c1.91.13 12.07.92 17.81 3.69 3.66 1.83 5.51 4.36 2.28 8.08z"/><path d="m390.44 364.93-1.31-.53h-.06c-.73-.29-1.45-.56-2.14-.82l-.26-.1c-2.07-.75-3.84-1.32-5-1.7-5.74-1.95-13.28-1.14-13.28-1.14l4.7-5.85.21-.26 7.72-9.6.07-.1.18-.23.08-.1.31-.38c-.59-.47-1.33-1.08-2.2-1.65a12.18 12.18 0 0 0-2-1.09 9.35 9.35 0 0 0-3.65-.75c-22.21 0-45.86 56.55-69.22 56.55h-63.98s12.23-7.25 24.48-14.86h-32.41s42.66-25.26 48.38-31a22.42 22.42 0 0 0 6.56-13.62c-3.75-.85-8.61.74-14.09 6.22 0 0-22.62 20.23-34.07 20.23s-32.6-13.17-96.34 50.56l-43.79 43.75a255 255 0 0 0 49.58 30.12c3.55 1.65 7.14 3.2 10.78 4.68 11.63-24.74 20.8-31.33 76-31.33 93.38 0 100.44-29.76 138.76-75.06 5.3-6.27 11.2-12.83 18-19.66l.25-.25a8.43 8.43 0 0 0 .66-.71c-.94-.47-1.93-.91-2.92-1.32z" style="fill:#d48d77"/><path class="cls-11" d="M391.14 358.18c-.86 1.07-1.75 2.19-2.67 3.38l-1.52 2q-8.28 10.69-15.7 19.79c-52 63.69-75.41 71.07-118.15 71.07-82.45 0-92 5.24-104.17 34.16 3.55 1.65 7.14 3.2 10.78 4.68 11.63-24.74 20.8-31.33 76-31.33 93.38 0 100.44-29.76 138.76-75.06 5.3-6.27 11.2-12.83 18-19.66l.25-.25a8.43 8.43 0 0 0 .66-.71c3.25-3.72 1.4-6.25-2.24-8.07z"/><path class="cls-11" d="m384.32 340.91-2.55 3.09-.39.47-.08.1-8.22 9.92-8.25 9.95-26.52 32c-12.11 12.11-24.25 26-43.37 26 0 0 31.63-14.34 45.19-33.68 5.41-7.71 13.53-18.13 21.36-27.87l.42-.51c5.49-6.83 10.79-13.28 14.85-18.19l.39-.48.26-.32c1.8-2.17 3.33-4 4.49-5.39a8 8 0 0 1 2.42 4.91z"/><path class="cls-13" d="m274.54 335.31-5.2 5.2a9.65 9.65 0 0 1-13.65 0l-1.78-1.78-.2-.21c6.69-4.84 11.9-9.5 11.9-9.5 3.62-3.62 7-5.55 9.92-6.19a9.65 9.65 0 0 1-.99 12.48z"/><path class="cls-14" d="M382.07 344.27a9.65 9.65 0 0 0-13.65 0l-5.2 5.19c-3.77 3.77-4.65 10.47 1.62 15z"/><path class="cls-13" d="M381.77 344a9.57 9.57 0 0 0-4.63-2.37l-15.65 19.18a8.21 8.21 0 0 0 3.35 3.62z"/><path class="cls-14" d="M392.49 367.21c-6.81 6.83-12.71 13.39-18 19.66l-.21-.2-1.78-1.78a4.61 4.61 0 0 1-.37-.4q-.31-.35-.6-.72l-.29-.42a9.66 9.66 0 0 1 1.26-12.11l5.19-5.2a9.66 9.66 0 0 1 9-2.58l.28.07a9.74 9.74 0 0 1 2.16.86l.14.08a8.73 8.73 0 0 1 .94.6l.2.16.34.26.22.2.36.34z"/><path class="cls-13" d="M392.49 367.21c-6.81 6.83-12.71 13.39-18 19.66l-.21-.2-1.78-1.78a4.61 4.61 0 0 1-.37-.4q-.31-.35-.6-.72l-.29-.42q7.44-9.11 15.7-19.79a9.37 9.37 0 0 1 2.12.84h.05l.15.08a10.61 10.61 0 0 1 .94.6l.2.16.34.26.22.2.36.34z"/></svg>